<svg width="214" height="214" viewBox="0 0 214 214" fill="none" xmlns="http://www.w3.org/2000/svg">
<path d="M107 66L107.429 98.8112L111.286 66.2246L108.283 98.901L115.524 66.8959L109.122 99.0794L119.67 68.0067L109.939 99.3446L123.676 69.5446L110.723 99.6937L127.5 71.493L111.466 100.123L131.099 73.8303L112.16 100.627L134.434 76.5311L112.798 101.202L137.469 79.5656L113.373 101.84L140.17 82.9008L113.877 102.534L142.507 86.5L114.306 103.277L144.455 90.3238L114.655 104.061L145.993 94.3303L114.921 104.878L147.104 98.4756L115.099 105.717L147.775 102.714L115.189 106.571L148 107L115.189 107.429L147.775 111.286L115.099 108.283L147.104 115.524L114.921 109.122L145.993 119.67L114.655 109.939L144.455 123.676L114.306 110.723L142.507 127.5L113.877 111.466L140.17 131.099L113.373 112.16L137.469 134.434L112.798 112.798L134.434 137.469L112.16 113.373L131.099 140.17L111.466 113.877L127.5 142.507L110.723 114.306L123.676 144.455L109.939 114.655L119.67 145.993L109.122 114.921L115.524 147.104L108.283 115.099L111.286 147.775L107.429 115.189L107 148L106.571 115.189L102.714 147.775L105.717 115.099L98.4756 147.104L104.878 114.921L94.3303 145.993L104.061 114.655L90.3238 144.455L103.277 114.306L86.5 142.507L102.534 113.877L82.9008 140.17L101.84 113.373L79.5656 137.469L101.202 112.798L76.5311 134.434L100.627 112.16L73.8303 131.099L100.123 111.466L71.493 127.5L99.6937 110.723L69.5446 123.676L99.3446 109.939L68.0067 119.67L99.0794 109.122L66.8959 115.524L98.901 108.283L66.2246 111.286L98.8112 107.429L66 107L98.8112 106.571L66.2246 102.714L98.901 105.717L66.8959 98.4756L99.0794 104.878L68.0067 94.3303L99.3446 104.061L69.5446 90.3238L99.6937 103.277L71.493 86.5L100.123 102.534L73.8303 82.9008L100.627 101.84L76.5311 79.5656L101.202 101.202L79.5656 76.5311L101.84 100.627L82.9008 73.8303L102.534 100.123L86.5 71.493L103.277 99.6937L90.3238 69.5446L104.061 99.3446L94.3303 68.0067L104.878 99.0794L98.4756 66.8959L105.717 98.901L102.714 66.2246L106.571 98.8112L107 66Z" fill="#0099F2"/>
<path d="M107 48L108.933 70.1166L113.167 48.3232L112.778 70.5207L119.267 49.2893L116.559 71.3245L125.232 50.8877L120.236 72.5191L130.997 53.1008L123.768 74.0916L136.5 55.9045L127.116 76.0245L141.679 59.268L130.243 78.2969L146.479 63.1545L133.116 80.8837L150.846 67.5213L135.703 83.7567L154.732 72.3207L137.975 86.8843L158.095 77.5L139.908 90.2323L160.899 83.0025L141.481 93.764L163.112 88.768L142.676 97.4408L164.711 94.7332L143.479 101.222L165.677 100.833L143.883 105.067L166 107L143.883 108.933L165.677 113.167L143.479 112.778L164.711 119.267L142.676 116.559L163.112 125.232L141.481 120.236L160.899 130.997L139.908 123.768L158.095 136.5L137.975 127.116L154.732 141.679L135.703 130.243L150.846 146.479L133.116 133.116L146.479 150.846L130.243 135.703L141.679 154.732L127.116 137.975L136.5 158.095L123.768 139.908L130.997 160.899L120.236 141.481L125.232 163.112L116.559 142.676L119.267 164.711L112.778 143.479L113.167 165.677L108.933 143.883L107 166L105.067 143.883L100.833 165.677L101.222 143.479L94.7332 164.711L97.4408 142.676L88.768 163.112L93.764 141.481L83.0025 160.899L90.2323 139.908L77.5 158.095L86.8843 137.975L72.3207 154.732L83.7567 135.703L67.5213 150.846L80.8837 133.116L63.1545 146.479L78.2969 130.243L59.268 141.679L76.0245 127.116L55.9045 136.5L74.0916 123.768L53.1008 130.997L72.5191 120.236L50.8877 125.232L71.3245 116.559L49.2893 119.267L70.5207 112.778L48.3232 113.167L70.1166 108.933L48 107L70.1166 105.067L48.3232 100.833L70.5207 101.222L49.2893 94.7332L71.3245 97.4408L50.8877 88.768L72.5191 93.764L53.1008 83.0025L74.0916 90.2323L55.9045 77.5L76.0245 86.8843L59.268 72.3207L78.2969 83.7567L63.1545 67.5213L80.8837 80.8837L67.5213 63.1545L83.7567 78.2969L72.3207 59.268L86.8843 76.0245L77.5 55.9045L90.2323 74.0916L83.0025 53.1008L93.764 72.5191L88.768 50.8877L97.4408 71.3245L94.7332 49.2893L101.222 70.5207L100.833 48.3232L105.067 70.1166L107 48Z" fill="#0099F2" fill-opacity="0.51"/>
<path d="M107 66L107.429 98.8112L111.286 66.2246L108.283 98.901L115.524 66.8959L109.122 99.0794L119.67 68.0067L109.939 99.3446L123.676 69.5446L110.723 99.6937L127.5 71.493L111.466 100.123L131.099 73.8303L112.16 100.627L134.434 76.5311L112.798 101.202L137.469 79.5656L113.373 101.84L140.17 82.9008L113.877 102.534L142.507 86.5L114.306 103.277L144.455 90.3238L114.655 104.061L145.993 94.3303L114.921 104.878L147.104 98.4756L115.099 105.717L147.775 102.714L115.189 106.571L148 107L115.189 107.429L147.775 111.286L115.099 108.283L147.104 115.524L114.921 109.122L145.993 119.67L114.655 109.939L144.455 123.676L114.306 110.723L142.507 127.5L113.877 111.466L140.17 131.099L113.373 112.16L137.469 134.434L112.798 112.798L134.434 137.469L112.16 113.373L131.099 140.17L111.466 113.877L127.5 142.507L110.723 114.306L123.676 144.455L109.939 114.655L119.67 145.993L109.122 114.921L115.524 147.104L108.283 115.099L111.286 147.775L107.429 115.189L107 148L106.571 115.189L102.714 147.775L105.717 115.099L98.4756 147.104L104.878 114.921L94.3303 145.993L104.061 114.655L90.3238 144.455L103.277 114.306L86.5 142.507L102.534 113.877L82.9008 140.17L101.84 113.373L79.5656 137.469L101.202 112.798L76.5311 134.434L100.627 112.16L73.8303 131.099L100.123 111.466L71.493 127.5L99.6937 110.723L69.5446 123.676L99.3446 109.939L68.0067 119.67L99.0794 109.122L66.8959 115.524L98.901 108.283L66.2246 111.286L98.8112 107.429L66 107L98.8112 106.571L66.2246 102.714L98.901 105.717L66.8959 98.4756L99.0794 104.878L68.0067 94.3303L99.3446 104.061L69.5446 90.3238L99.6937 103.277L71.493 86.5L100.123 102.534L73.8303 82.9008L100.627 101.84L76.5311 79.5656L101.202 101.202L79.5656 76.5311L101.84 100.627L82.9008 73.8303L102.534 100.123L86.5 71.493L103.277 99.6937L90.3238 69.5446L104.061 99.3446L94.3303 68.0067L104.878 99.0794L98.4756 66.8959L105.717 98.901L102.714 66.2246L106.571 98.8112L107 66Z" fill="#0099F2"/>
</svg>
