<svg width="289" height="1670" viewBox="0 0 289 1670" fill="none" xmlns="http://www.w3.org/2000/svg">
<g style="mix-blend-mode:color-dodge">
<rect width="10" height="10.3157" transform="matrix(0 -1 1 0 -6.02856 960)" fill="black"/>
<ellipse cx="-0.870723" cy="955" rx="5" ry="5.15784" transform="rotate(-90 -0.870723 955)" fill="url(#paint0_radial_129_871)"/>
</g>
<g style="mix-blend-mode:color-dodge">
<rect width="10" height="10.3157" transform="matrix(0 -1 1 0 172.433 603)" fill="black"/>
<ellipse cx="177.591" cy="598" rx="5" ry="5.15784" transform="rotate(-90 177.591 598)" fill="url(#paint1_radial_129_871)"/>
</g>
<g style="mix-blend-mode:color-dodge">
<rect width="10" height="10.3157" transform="matrix(0 -1 1 0 204.411 678)" fill="black"/>
<ellipse cx="209.569" cy="673" rx="5" ry="5.15784" transform="rotate(-90 209.569 673)" fill="url(#paint2_radial_129_871)"/>
</g>
<g style="mix-blend-mode:color-dodge">
<rect width="10" height="10.3157" transform="matrix(0 -1 1 0 35.2341 280)" fill="black"/>
<ellipse cx="40.392" cy="275" rx="5" ry="5.15784" transform="rotate(-90 40.392 275)" fill="url(#paint3_radial_129_871)"/>
</g>
<g style="mix-blend-mode:color-dodge">
<rect width="10" height="10.3157" transform="matrix(0 -1 1 0 4.28711 614)" fill="black"/>
<ellipse cx="9.44495" cy="609" rx="5" ry="5.15784" transform="rotate(-90 9.44495 609)" fill="url(#paint4_radial_129_871)"/>
</g>
<g style="mix-blend-mode:color-dodge">
<rect width="10" height="10.3157" transform="matrix(0 -1 1 0 44.5183 1037)" fill="black"/>
<ellipse cx="49.6762" cy="1032" rx="5" ry="5.15784" transform="rotate(-90 49.6762 1032)" fill="url(#paint5_radial_129_871)"/>
</g>
<g style="mix-blend-mode:color-dodge">
<rect width="10" height="10.3157" transform="matrix(0 -1 1 0 28.0132 95)" fill="black"/>
<ellipse cx="33.171" cy="90" rx="5" ry="5.15784" transform="rotate(-90 33.171 90)" fill="url(#paint6_radial_129_871)"/>
</g>
<g style="mix-blend-mode:color-dodge">
<rect width="10" height="10.3157" transform="matrix(0 -1 1 0 84.7495 491)" fill="black"/>
<ellipse cx="89.9074" cy="486" rx="5" ry="5.15784" transform="rotate(-90 89.9074 486)" fill="url(#paint7_radial_129_871)"/>
</g>
<g style="mix-blend-mode:color-dodge">
<rect width="10" height="10.3157" transform="matrix(0 -1 1 0 157.991 215)" fill="black"/>
<ellipse cx="163.149" cy="210" rx="5" ry="5.15784" transform="rotate(-90 163.149 210)" fill="url(#paint8_radial_129_871)"/>
</g>
<g style="mix-blend-mode:color-dodge">
<rect width="10" height="10.3157" transform="matrix(0 -1 1 0 99.1914 371)" fill="black"/>
<ellipse cx="104.349" cy="366" rx="5" ry="5.15784" transform="rotate(-90 104.349 366)" fill="url(#paint9_radial_129_871)"/>
</g>
<g style="mix-blend-mode:color-dodge">
<rect width="10" height="10.3157" transform="matrix(0 -1 1 0 184.812 467)" fill="black"/>
<ellipse cx="189.969" cy="462" rx="5" ry="5.15784" transform="rotate(-90 189.969 462)" fill="url(#paint10_radial_129_871)"/>
</g>
<g style="mix-blend-mode:color-dodge">
<rect width="10" height="10.3157" transform="matrix(0 -1 1 0 74.4338 987)" fill="black"/>
<ellipse cx="79.5917" cy="982" rx="5" ry="5.15784" transform="rotate(-90 79.5917 982)" fill="url(#paint11_radial_129_871)"/>
</g>
<g style="mix-blend-mode:color-dodge">
<rect width="10" height="10.3157" transform="matrix(0 -1 1 0 229.169 1144)" fill="black"/>
<ellipse cx="234.327" cy="1139" rx="5" ry="5.15784" transform="rotate(-90 234.327 1139)" fill="url(#paint12_radial_129_871)"/>
</g>
<g style="mix-blend-mode:color-dodge">
<rect width="10" height="10.3157" transform="matrix(0 -1 1 0 154.896 1174)" fill="black"/>
<ellipse cx="160.054" cy="1169" rx="5" ry="5.15784" transform="rotate(-90 160.054 1169)" fill="url(#paint13_radial_129_871)"/>
</g>
<g style="mix-blend-mode:color-dodge">
<rect width="10" height="10.3157" transform="matrix(0 -1 1 0 11.5081 666)" fill="black"/>
<ellipse cx="16.6659" cy="661" rx="5" ry="5.15784" transform="rotate(-90 16.6659 661)" fill="url(#paint14_radial_129_871)" fill-opacity="0.8"/>
</g>
<g style="mix-blend-mode:color-dodge">
<rect width="10" height="10.3157" transform="matrix(0 -1 1 0 21.8237 545)" fill="black"/>
<ellipse cx="26.9816" cy="540" rx="5" ry="5.15784" transform="rotate(-90 26.9816 540)" fill="url(#paint15_radial_129_871)" fill-opacity="0.8"/>
</g>
<g style="mix-blend-mode:color-dodge">
<rect width="10" height="10.3157" transform="matrix(0 -1 1 0 54.834 751)" fill="black"/>
<ellipse cx="59.9918" cy="746" rx="5" ry="5.15784" transform="rotate(-90 59.9918 746)" fill="url(#paint16_radial_129_871)" fill-opacity="0.8"/>
</g>
<g style="mix-blend-mode:color-dodge">
<rect width="10" height="10.3157" transform="matrix(0 -1 1 0 28.0132 732)" fill="black"/>
<ellipse cx="33.171" cy="727" rx="5" ry="5.15784" transform="rotate(-90 33.171 727)" fill="url(#paint17_radial_129_871)" fill-opacity="0.8"/>
</g>
<g style="mix-blend-mode:color-dodge">
<rect width="10" height="10.3157" transform="matrix(0 -1 1 0 35.2341 806)" fill="black"/>
<ellipse cx="40.392" cy="801" rx="5" ry="5.15784" transform="rotate(-90 40.392 801)" fill="url(#paint18_radial_129_871)" fill-opacity="0.8"/>
</g>
<g style="mix-blend-mode:color-dodge">
<rect width="10" height="10.3157" transform="matrix(0 -1 1 0 76.4971 992)" fill="black"/>
<ellipse cx="81.6549" cy="987" rx="5" ry="5.15784" transform="rotate(-90 81.6549 987)" fill="url(#paint19_radial_129_871)" fill-opacity="0.8"/>
</g>
<g style="mix-blend-mode:color-dodge">
<rect width="10" height="10.3157" transform="matrix(0 -1 1 0 81.6548 1084)" fill="black"/>
<ellipse cx="86.8126" cy="1079" rx="5" ry="5.15784" transform="rotate(-90 86.8126 1079)" fill="url(#paint20_radial_129_871)" fill-opacity="0.8"/>
</g>
<g style="mix-blend-mode:color-dodge">
<rect width="10" height="10.3157" transform="matrix(0 -1 1 0 1.19238 1193)" fill="black"/>
<ellipse cx="6.35022" cy="1188" rx="5" ry="5.15784" transform="rotate(-90 6.35022 1188)" fill="url(#paint21_radial_129_871)" fill-opacity="0.8"/>
</g>
<g style="mix-blend-mode:color-dodge">
<rect width="10" height="10.3157" transform="matrix(0 -1 1 0 185.843 728)" fill="black"/>
<ellipse cx="191.001" cy="723" rx="5" ry="5.15784" transform="rotate(-90 191.001 723)" fill="url(#paint22_radial_129_871)" fill-opacity="0.8"/>
</g>
<g style="mix-blend-mode:color-dodge">
<rect width="10" height="10.3157" transform="matrix(0 -1 1 0 49.6763 429)" fill="black"/>
<ellipse cx="54.8341" cy="424" rx="5" ry="5.15784" transform="rotate(-90 54.8341 424)" fill="url(#paint23_radial_129_871)" fill-opacity="0.8"/>
</g>
<g style="mix-blend-mode:color-dodge">
<rect width="10" height="10.3157" transform="matrix(0 -1 1 0 170.37 545)" fill="black"/>
<ellipse cx="175.527" cy="540" rx="5" ry="5.15784" transform="rotate(-90 175.527 540)" fill="url(#paint24_radial_129_871)" fill-opacity="0.8"/>
</g>
<g style="mix-blend-mode:color-dodge">
<rect width="10" height="10.3157" transform="matrix(0 -1 1 0 105.381 523)" fill="black"/>
<ellipse cx="110.539" cy="518" rx="5" ry="5.15784" transform="rotate(-90 110.539 518)" fill="url(#paint25_radial_129_871)" fill-opacity="0.8"/>
</g>
<g style="mix-blend-mode:color-dodge">
<rect width="10" height="10.3157" transform="matrix(0 -1 1 0 9.44507 336)" fill="black"/>
<ellipse cx="14.6029" cy="331" rx="5" ry="5.15784" transform="rotate(-90 14.6029 331)" fill="url(#paint26_radial_129_871)" fill-opacity="0.8"/>
</g>
<g style="mix-blend-mode:color-dodge">
<rect width="10" height="10.3157" transform="matrix(0 -1 1 0 106.412 292)" fill="black"/>
<ellipse cx="111.57" cy="287" rx="5" ry="5.15784" transform="rotate(-90 111.57 287)" fill="url(#paint27_radial_129_871)" fill-opacity="0.8"/>
</g>
<g style="mix-blend-mode:color-dodge">
<rect width="10" height="10.3157" transform="matrix(0 -1 1 0 81.6548 712)" fill="black"/>
<ellipse cx="86.8126" cy="707" rx="5" ry="5.15784" transform="rotate(-90 86.8126 707)" fill="url(#paint28_radial_129_871)" fill-opacity="0.8"/>
</g>
<g style="mix-blend-mode:color-dodge">
<rect width="10" height="10.3157" transform="matrix(0 -1 1 0 105.381 822)" fill="black"/>
<ellipse cx="110.539" cy="817" rx="5" ry="5.15784" transform="rotate(-90 110.539 817)" fill="url(#paint29_radial_129_871)" fill-opacity="0.8"/>
</g>
<g style="mix-blend-mode:color-dodge">
<rect width="10" height="10.3157" transform="matrix(0 -1 1 0 163.149 873)" fill="black"/>
<ellipse cx="168.307" cy="868" rx="5" ry="5.15784" transform="rotate(-90 168.307 868)" fill="url(#paint30_radial_129_871)" fill-opacity="0.8"/>
</g>
<g style="mix-blend-mode:color-dodge">
<rect width="10" height="10.3157" transform="matrix(0 -1 1 0 105.381 876)" fill="black"/>
<ellipse cx="110.539" cy="871" rx="5" ry="5.15784" transform="rotate(-90 110.539 871)" fill="url(#paint31_radial_129_871)" fill-opacity="0.8"/>
</g>
<g style="mix-blend-mode:color-dodge">
<rect width="10" height="10.3157" transform="matrix(0 -1 1 0 14.6028 1268)" fill="black"/>
<ellipse cx="19.7606" cy="1263" rx="5" ry="5.15784" transform="rotate(-90 19.7606 1263)" fill="url(#paint32_radial_129_871)" fill-opacity="0.8"/>
</g>
<g style="mix-blend-mode:color-dodge">
<rect width="10" height="10.3157" transform="matrix(0 -1 1 0 61.0234 1296)" fill="black"/>
<ellipse cx="66.1813" cy="1291" rx="5" ry="5.15784" transform="rotate(-90 66.1813 1291)" fill="url(#paint33_radial_129_871)" fill-opacity="0.8"/>
</g>
<g style="mix-blend-mode:color-dodge">
<rect width="10" height="10.3157" transform="matrix(0 -1 1 0 122.917 1233)" fill="black"/>
<ellipse cx="128.075" cy="1228" rx="5" ry="5.15784" transform="rotate(-90 128.075 1228)" fill="url(#paint34_radial_129_871)" fill-opacity="0.8"/>
</g>
<g style="mix-blend-mode:color-dodge">
<rect width="10" height="10.3157" transform="matrix(0 -1 1 0 133.233 1286)" fill="black"/>
<ellipse cx="138.391" cy="1281" rx="5" ry="5.15784" transform="rotate(-90 138.391 1281)" fill="url(#paint35_radial_129_871)" fill-opacity="0.8"/>
</g>
<g style="mix-blend-mode:color-dodge">
<rect width="10" height="10.3157" transform="matrix(0 -1 1 0 74.4338 1390)" fill="black"/>
<ellipse cx="79.5917" cy="1385" rx="5" ry="5.15784" transform="rotate(-90 79.5917 1385)" fill="url(#paint36_radial_129_871)" fill-opacity="0.8"/>
</g>
<g style="mix-blend-mode:color-dodge">
<rect width="10" height="10.3157" transform="matrix(0 -1 1 0 71.3391 1547)" fill="black"/>
<ellipse cx="76.497" cy="1542" rx="5" ry="5.15784" transform="rotate(-90 76.497 1542)" fill="url(#paint37_radial_129_871)" fill-opacity="0.8"/>
</g>
<g style="mix-blend-mode:color-dodge">
<rect width="10" height="10.3157" transform="matrix(0 -1 1 0 151.802 1562)" fill="black"/>
<ellipse cx="156.959" cy="1557" rx="5" ry="5.15784" transform="rotate(-90 156.959 1557)" fill="url(#paint38_radial_129_871)" fill-opacity="0.8"/>
</g>
<g style="mix-blend-mode:color-dodge">
<rect width="10" height="10.3157" transform="matrix(0 -1 1 0 148.707 1631)" fill="black"/>
<ellipse cx="153.865" cy="1626" rx="5" ry="5.15784" transform="rotate(-90 153.865 1626)" fill="url(#paint39_radial_129_871)" fill-opacity="0.8"/>
</g>
<g style="mix-blend-mode:color-dodge">
<rect width="10" height="10.3157" transform="matrix(0 -1 1 0 278.684 1577)" fill="black"/>
<ellipse cx="283.842" cy="1572" rx="5" ry="5.15784" transform="rotate(-90 283.842 1572)" fill="url(#paint40_radial_129_871)" fill-opacity="0.8"/>
</g>
<g style="mix-blend-mode:color-dodge">
<rect width="10" height="10.3157" transform="matrix(0 -1 1 0 216.79 1380)" fill="black"/>
<ellipse cx="221.948" cy="1375" rx="5" ry="5.15784" transform="rotate(-90 221.948 1375)" fill="url(#paint41_radial_129_871)" fill-opacity="0.8"/>
</g>
<g style="mix-blend-mode:color-dodge">
<rect width="10" height="10.3157" transform="matrix(0 -1 1 0 242.579 1281)" fill="black"/>
<ellipse cx="247.737" cy="1276" rx="5" ry="5.15784" transform="rotate(-90 247.737 1276)" fill="url(#paint42_radial_129_871)" fill-opacity="0.8"/>
</g>
<g style="mix-blend-mode:color-dodge">
<rect width="10" height="10.3157" transform="matrix(0 -1 1 0 242.579 1337)" fill="black"/>
<ellipse cx="247.737" cy="1332" rx="5" ry="5.15784" transform="rotate(-90 247.737 1332)" fill="url(#paint43_radial_129_871)" fill-opacity="0.8"/>
</g>
<g style="mix-blend-mode:color-dodge">
<rect width="10" height="10.3157" transform="matrix(0 -1 1 0 166.243 1493)" fill="black"/>
<ellipse cx="171.401" cy="1488" rx="5" ry="5.15784" transform="rotate(-90 171.401 1488)" fill="url(#paint44_radial_129_871)" fill-opacity="0.8"/>
</g>
<g style="mix-blend-mode:color-dodge">
<rect width="10" height="10.3157" transform="matrix(0 -1 1 0 -0.870605 1600)" fill="black"/>
<ellipse cx="4.28724" cy="1595" rx="5" ry="5.15784" transform="rotate(-90 4.28724 1595)" fill="url(#paint45_radial_129_871)" fill-opacity="0.8"/>
</g>
<g style="mix-blend-mode:color-dodge">
<rect width="10" height="10.3157" transform="matrix(0 -1 1 0 6.35034 278)" fill="black"/>
<ellipse cx="11.5082" cy="273" rx="5" ry="5.15784" transform="rotate(-90 11.5082 273)" fill="url(#paint46_radial_129_871)" fill-opacity="0.8"/>
</g>
<g style="mix-blend-mode:color-dodge">
<rect width="10" height="10.3157" transform="matrix(0 -1 1 0 -0.870605 741)" fill="black"/>
<ellipse cx="4.28724" cy="736" rx="5" ry="5.15784" transform="rotate(-90 4.28724 736)" fill="url(#paint47_radial_129_871)" fill-opacity="0.8"/>
</g>
<g style="mix-blend-mode:color-dodge">
<rect width="10" height="10.3157" transform="matrix(0 -1 1 0 69.2759 911)" fill="black"/>
<ellipse cx="74.4337" cy="906" rx="5" ry="5.15784" transform="rotate(-90 74.4337 906)" fill="url(#paint48_radial_129_871)" fill-opacity="0.8"/>
</g>
<g style="mix-blend-mode:color-dodge">
<rect width="10" height="10.3157" transform="matrix(0 -1 1 0 -0.870605 911)" fill="black"/>
<ellipse cx="4.28724" cy="906" rx="5" ry="5.15784" transform="rotate(-90 4.28724 906)" fill="url(#paint49_radial_129_871)" fill-opacity="0.8"/>
</g>
<g style="mix-blend-mode:color-dodge">
<rect width="24" height="24.7576" transform="matrix(0 -1 1 0 34.2026 1521)" fill="black"/>
<ellipse cx="46.5815" cy="1509" rx="12" ry="12.3788" transform="rotate(-90 46.5815 1509)" fill="url(#paint50_radial_129_871)"/>
</g>
<g style="mix-blend-mode:color-dodge">
<rect width="24" height="24.7576" transform="matrix(0 -1 1 0 115.697 791)" fill="black"/>
<ellipse cx="128.075" cy="779" rx="12" ry="12.3788" transform="rotate(-90 128.075 779)" fill="url(#paint51_radial_129_871)"/>
</g>
<defs>
<radialGradient id="paint0_radial_129_871" cx="0" cy="0" r="1" gradientUnits="userSpaceOnUse" gradientTransform="translate(-0.870723 955) rotate(90) scale(5.15784 5)">
<stop offset="0.145833" stop-color="white"/>
<stop offset="1" stop-color="#EFE46F" stop-opacity="0.45"/>
</radialGradient>
<radialGradient id="paint1_radial_129_871" cx="0" cy="0" r="1" gradientUnits="userSpaceOnUse" gradientTransform="translate(177.591 598) rotate(90) scale(5.15784 5)">
<stop offset="0.145833" stop-color="white"/>
<stop offset="1" stop-color="#EFE46F" stop-opacity="0.45"/>
</radialGradient>
<radialGradient id="paint2_radial_129_871" cx="0" cy="0" r="1" gradientUnits="userSpaceOnUse" gradientTransform="translate(209.569 673) rotate(90) scale(5.15784 5)">
<stop offset="0.145833" stop-color="white"/>
<stop offset="1" stop-color="#EFE46F" stop-opacity="0.45"/>
</radialGradient>
<radialGradient id="paint3_radial_129_871" cx="0" cy="0" r="1" gradientUnits="userSpaceOnUse" gradientTransform="translate(40.392 275) rotate(90) scale(5.15784 5)">
<stop offset="0.145833" stop-color="white"/>
<stop offset="1" stop-color="#EFE46F" stop-opacity="0.45"/>
</radialGradient>
<radialGradient id="paint4_radial_129_871" cx="0" cy="0" r="1" gradientUnits="userSpaceOnUse" gradientTransform="translate(9.44495 609) rotate(90) scale(5.15784 5)">
<stop offset="0.145833" stop-color="white"/>
<stop offset="1" stop-color="#EFE46F" stop-opacity="0.45"/>
</radialGradient>
<radialGradient id="paint5_radial_129_871" cx="0" cy="0" r="1" gradientUnits="userSpaceOnUse" gradientTransform="translate(49.6762 1032) rotate(90) scale(5.15784 5)">
<stop offset="0.145833" stop-color="white"/>
<stop offset="1" stop-color="#EFE46F" stop-opacity="0.45"/>
</radialGradient>
<radialGradient id="paint6_radial_129_871" cx="0" cy="0" r="1" gradientUnits="userSpaceOnUse" gradientTransform="translate(33.171 90) rotate(90) scale(5.15784 5)">
<stop offset="0.145833" stop-color="white"/>
<stop offset="1" stop-color="#EFE46F" stop-opacity="0.45"/>
</radialGradient>
<radialGradient id="paint7_radial_129_871" cx="0" cy="0" r="1" gradientUnits="userSpaceOnUse" gradientTransform="translate(89.9074 486) rotate(90) scale(5.15784 5)">
<stop offset="0.145833" stop-color="white"/>
<stop offset="1" stop-color="#EFE46F" stop-opacity="0.45"/>
</radialGradient>
<radialGradient id="paint8_radial_129_871" cx="0" cy="0" r="1" gradientUnits="userSpaceOnUse" gradientTransform="translate(163.149 210) rotate(90) scale(5.15784 5)">
<stop offset="0.145833" stop-color="white"/>
<stop offset="1" stop-color="#EFE46F" stop-opacity="0.45"/>
</radialGradient>
<radialGradient id="paint9_radial_129_871" cx="0" cy="0" r="1" gradientUnits="userSpaceOnUse" gradientTransform="translate(104.349 366) rotate(90) scale(5.15784 5)">
<stop offset="0.145833" stop-color="white"/>
<stop offset="1" stop-color="#EFE46F" stop-opacity="0.45"/>
</radialGradient>
<radialGradient id="paint10_radial_129_871" cx="0" cy="0" r="1" gradientUnits="userSpaceOnUse" gradientTransform="translate(189.969 462) rotate(90) scale(5.15784 5)">
<stop offset="0.145833" stop-color="white"/>
<stop offset="1" stop-color="#EFE46F" stop-opacity="0.45"/>
</radialGradient>
<radialGradient id="paint11_radial_129_871" cx="0" cy="0" r="1" gradientUnits="userSpaceOnUse" gradientTransform="translate(79.5917 982) rotate(90) scale(5.15784 5)">
<stop offset="0.145833" stop-color="white"/>
<stop offset="1" stop-color="#EFE46F" stop-opacity="0.45"/>
</radialGradient>
<radialGradient id="paint12_radial_129_871" cx="0" cy="0" r="1" gradientUnits="userSpaceOnUse" gradientTransform="translate(234.327 1139) rotate(90) scale(5.15784 5)">
<stop offset="0.145833" stop-color="white"/>
<stop offset="1" stop-color="#EFE46F" stop-opacity="0.45"/>
</radialGradient>
<radialGradient id="paint13_radial_129_871" cx="0" cy="0" r="1" gradientUnits="userSpaceOnUse" gradientTransform="translate(160.054 1169) rotate(90) scale(5.15784 5)">
<stop offset="0.145833" stop-color="white"/>
<stop offset="1" stop-color="#EFE46F" stop-opacity="0.45"/>
</radialGradient>
<radialGradient id="paint14_radial_129_871" cx="0" cy="0" r="1" gradientUnits="userSpaceOnUse" gradientTransform="translate(16.6659 661) rotate(90) scale(5.15784 5)">
<stop offset="0.015625" stop-color="white"/>
<stop offset="1" stop-color="#BB9F4D" stop-opacity="0"/>
</radialGradient>
<radialGradient id="paint15_radial_129_871" cx="0" cy="0" r="1" gradientUnits="userSpaceOnUse" gradientTransform="translate(26.9816 540) rotate(90) scale(5.15784 5)">
<stop offset="0.015625" stop-color="white"/>
<stop offset="1" stop-color="#BB9F4D" stop-opacity="0"/>
</radialGradient>
<radialGradient id="paint16_radial_129_871" cx="0" cy="0" r="1" gradientUnits="userSpaceOnUse" gradientTransform="translate(59.9918 746) rotate(90) scale(5.15784 5)">
<stop offset="0.015625" stop-color="white"/>
<stop offset="1" stop-color="#BB9F4D" stop-opacity="0"/>
</radialGradient>
<radialGradient id="paint17_radial_129_871" cx="0" cy="0" r="1" gradientUnits="userSpaceOnUse" gradientTransform="translate(33.171 727) rotate(90) scale(5.15784 5)">
<stop offset="0.015625" stop-color="white"/>
<stop offset="1" stop-color="#BB9F4D" stop-opacity="0"/>
</radialGradient>
<radialGradient id="paint18_radial_129_871" cx="0" cy="0" r="1" gradientUnits="userSpaceOnUse" gradientTransform="translate(40.392 801) rotate(90) scale(5.15784 5)">
<stop offset="0.015625" stop-color="white"/>
<stop offset="1" stop-color="#BB9F4D" stop-opacity="0"/>
</radialGradient>
<radialGradient id="paint19_radial_129_871" cx="0" cy="0" r="1" gradientUnits="userSpaceOnUse" gradientTransform="translate(81.6549 987) rotate(90) scale(5.15784 5)">
<stop offset="0.015625" stop-color="white"/>
<stop offset="1" stop-color="#BB9F4D" stop-opacity="0"/>
</radialGradient>
<radialGradient id="paint20_radial_129_871" cx="0" cy="0" r="1" gradientUnits="userSpaceOnUse" gradientTransform="translate(86.8126 1079) rotate(90) scale(5.15784 5)">
<stop offset="0.015625" stop-color="white"/>
<stop offset="1" stop-color="#BB9F4D" stop-opacity="0"/>
</radialGradient>
<radialGradient id="paint21_radial_129_871" cx="0" cy="0" r="1" gradientUnits="userSpaceOnUse" gradientTransform="translate(6.35022 1188) rotate(90) scale(5.15784 5)">
<stop offset="0.015625" stop-color="white"/>
<stop offset="1" stop-color="#BB9F4D" stop-opacity="0"/>
</radialGradient>
<radialGradient id="paint22_radial_129_871" cx="0" cy="0" r="1" gradientUnits="userSpaceOnUse" gradientTransform="translate(191.001 723) rotate(90) scale(5.15784 5)">
<stop offset="0.015625" stop-color="white"/>
<stop offset="1" stop-color="#BB9F4D" stop-opacity="0"/>
</radialGradient>
<radialGradient id="paint23_radial_129_871" cx="0" cy="0" r="1" gradientUnits="userSpaceOnUse" gradientTransform="translate(54.8341 424) rotate(90) scale(5.15784 5)">
<stop offset="0.015625" stop-color="white"/>
<stop offset="1" stop-color="#BB9F4D" stop-opacity="0"/>
</radialGradient>
<radialGradient id="paint24_radial_129_871" cx="0" cy="0" r="1" gradientUnits="userSpaceOnUse" gradientTransform="translate(175.527 540) rotate(90) scale(5.15784 5)">
<stop offset="0.015625" stop-color="white"/>
<stop offset="1" stop-color="#BB9F4D" stop-opacity="0"/>
</radialGradient>
<radialGradient id="paint25_radial_129_871" cx="0" cy="0" r="1" gradientUnits="userSpaceOnUse" gradientTransform="translate(110.539 518) rotate(90) scale(5.15784 5)">
<stop offset="0.015625" stop-color="white"/>
<stop offset="1" stop-color="#BB9F4D" stop-opacity="0"/>
</radialGradient>
<radialGradient id="paint26_radial_129_871" cx="0" cy="0" r="1" gradientUnits="userSpaceOnUse" gradientTransform="translate(14.6029 331) rotate(90) scale(5.15784 5)">
<stop offset="0.015625" stop-color="white"/>
<stop offset="1" stop-color="#BB9F4D" stop-opacity="0"/>
</radialGradient>
<radialGradient id="paint27_radial_129_871" cx="0" cy="0" r="1" gradientUnits="userSpaceOnUse" gradientTransform="translate(111.57 287) rotate(90) scale(5.15784 5)">
<stop offset="0.015625" stop-color="white"/>
<stop offset="1" stop-color="#BB9F4D" stop-opacity="0"/>
</radialGradient>
<radialGradient id="paint28_radial_129_871" cx="0" cy="0" r="1" gradientUnits="userSpaceOnUse" gradientTransform="translate(86.8126 707) rotate(90) scale(5.15784 5)">
<stop offset="0.015625" stop-color="white"/>
<stop offset="1" stop-color="#BB9F4D" stop-opacity="0"/>
</radialGradient>
<radialGradient id="paint29_radial_129_871" cx="0" cy="0" r="1" gradientUnits="userSpaceOnUse" gradientTransform="translate(110.539 817) rotate(90) scale(5.15784 5)">
<stop offset="0.015625" stop-color="white"/>
<stop offset="1" stop-color="#BB9F4D" stop-opacity="0"/>
</radialGradient>
<radialGradient id="paint30_radial_129_871" cx="0" cy="0" r="1" gradientUnits="userSpaceOnUse" gradientTransform="translate(168.307 868) rotate(90) scale(5.15784 5)">
<stop offset="0.015625" stop-color="white"/>
<stop offset="1" stop-color="#BB9F4D" stop-opacity="0"/>
</radialGradient>
<radialGradient id="paint31_radial_129_871" cx="0" cy="0" r="1" gradientUnits="userSpaceOnUse" gradientTransform="translate(110.539 871) rotate(90) scale(5.15784 5)">
<stop offset="0.015625" stop-color="white"/>
<stop offset="1" stop-color="#BB9F4D" stop-opacity="0"/>
</radialGradient>
<radialGradient id="paint32_radial_129_871" cx="0" cy="0" r="1" gradientUnits="userSpaceOnUse" gradientTransform="translate(19.7606 1263) rotate(90) scale(5.15784 5)">
<stop offset="0.015625" stop-color="white"/>
<stop offset="1" stop-color="#BB9F4D" stop-opacity="0"/>
</radialGradient>
<radialGradient id="paint33_radial_129_871" cx="0" cy="0" r="1" gradientUnits="userSpaceOnUse" gradientTransform="translate(66.1813 1291) rotate(90) scale(5.15784 5)">
<stop offset="0.015625" stop-color="white"/>
<stop offset="1" stop-color="#BB9F4D" stop-opacity="0"/>
</radialGradient>
<radialGradient id="paint34_radial_129_871" cx="0" cy="0" r="1" gradientUnits="userSpaceOnUse" gradientTransform="translate(128.075 1228) rotate(90) scale(5.15784 5)">
<stop offset="0.015625" stop-color="white"/>
<stop offset="1" stop-color="#BB9F4D" stop-opacity="0"/>
</radialGradient>
<radialGradient id="paint35_radial_129_871" cx="0" cy="0" r="1" gradientUnits="userSpaceOnUse" gradientTransform="translate(138.391 1281) rotate(90) scale(5.15784 5)">
<stop offset="0.015625" stop-color="white"/>
<stop offset="1" stop-color="#BB9F4D" stop-opacity="0"/>
</radialGradient>
<radialGradient id="paint36_radial_129_871" cx="0" cy="0" r="1" gradientUnits="userSpaceOnUse" gradientTransform="translate(79.5917 1385) rotate(90) scale(5.15784 5)">
<stop offset="0.015625" stop-color="white"/>
<stop offset="1" stop-color="#BB9F4D" stop-opacity="0"/>
</radialGradient>
<radialGradient id="paint37_radial_129_871" cx="0" cy="0" r="1" gradientUnits="userSpaceOnUse" gradientTransform="translate(76.497 1542) rotate(90) scale(5.15784 5)">
<stop offset="0.015625" stop-color="white"/>
<stop offset="1" stop-color="#BB9F4D" stop-opacity="0"/>
</radialGradient>
<radialGradient id="paint38_radial_129_871" cx="0" cy="0" r="1" gradientUnits="userSpaceOnUse" gradientTransform="translate(156.959 1557) rotate(90) scale(5.15784 5)">
<stop offset="0.015625" stop-color="white"/>
<stop offset="1" stop-color="#BB9F4D" stop-opacity="0"/>
</radialGradient>
<radialGradient id="paint39_radial_129_871" cx="0" cy="0" r="1" gradientUnits="userSpaceOnUse" gradientTransform="translate(153.865 1626) rotate(90) scale(5.15784 5)">
<stop offset="0.015625" stop-color="white"/>
<stop offset="1" stop-color="#BB9F4D" stop-opacity="0"/>
</radialGradient>
<radialGradient id="paint40_radial_129_871" cx="0" cy="0" r="1" gradientUnits="userSpaceOnUse" gradientTransform="translate(283.842 1572) rotate(90) scale(5.15784 5)">
<stop offset="0.015625" stop-color="white"/>
<stop offset="1" stop-color="#BB9F4D" stop-opacity="0"/>
</radialGradient>
<radialGradient id="paint41_radial_129_871" cx="0" cy="0" r="1" gradientUnits="userSpaceOnUse" gradientTransform="translate(221.948 1375) rotate(90) scale(5.15784 5)">
<stop offset="0.015625" stop-color="white"/>
<stop offset="1" stop-color="#BB9F4D" stop-opacity="0"/>
</radialGradient>
<radialGradient id="paint42_radial_129_871" cx="0" cy="0" r="1" gradientUnits="userSpaceOnUse" gradientTransform="translate(247.737 1276) rotate(90) scale(5.15784 5)">
<stop offset="0.015625" stop-color="white"/>
<stop offset="1" stop-color="#BB9F4D" stop-opacity="0"/>
</radialGradient>
<radialGradient id="paint43_radial_129_871" cx="0" cy="0" r="1" gradientUnits="userSpaceOnUse" gradientTransform="translate(247.737 1332) rotate(90) scale(5.15784 5)">
<stop offset="0.015625" stop-color="white"/>
<stop offset="1" stop-color="#BB9F4D" stop-opacity="0"/>
</radialGradient>
<radialGradient id="paint44_radial_129_871" cx="0" cy="0" r="1" gradientUnits="userSpaceOnUse" gradientTransform="translate(171.401 1488) rotate(90) scale(5.15784 5)">
<stop offset="0.015625" stop-color="white"/>
<stop offset="1" stop-color="#BB9F4D" stop-opacity="0"/>
</radialGradient>
<radialGradient id="paint45_radial_129_871" cx="0" cy="0" r="1" gradientUnits="userSpaceOnUse" gradientTransform="translate(4.28724 1595) rotate(90) scale(5.15784 5)">
<stop offset="0.015625" stop-color="white"/>
<stop offset="1" stop-color="#BB9F4D" stop-opacity="0"/>
</radialGradient>
<radialGradient id="paint46_radial_129_871" cx="0" cy="0" r="1" gradientUnits="userSpaceOnUse" gradientTransform="translate(11.5082 273) rotate(90) scale(5.15784 5)">
<stop offset="0.015625" stop-color="white"/>
<stop offset="1" stop-color="#BB9F4D" stop-opacity="0"/>
</radialGradient>
<radialGradient id="paint47_radial_129_871" cx="0" cy="0" r="1" gradientUnits="userSpaceOnUse" gradientTransform="translate(4.28724 736) rotate(90) scale(5.15784 5)">
<stop offset="0.015625" stop-color="white"/>
<stop offset="1" stop-color="#BB9F4D" stop-opacity="0"/>
</radialGradient>
<radialGradient id="paint48_radial_129_871" cx="0" cy="0" r="1" gradientUnits="userSpaceOnUse" gradientTransform="translate(74.4337 906) rotate(90) scale(5.15784 5)">
<stop offset="0.015625" stop-color="white"/>
<stop offset="1" stop-color="#BB9F4D" stop-opacity="0"/>
</radialGradient>
<radialGradient id="paint49_radial_129_871" cx="0" cy="0" r="1" gradientUnits="userSpaceOnUse" gradientTransform="translate(4.28724 906) rotate(90) scale(5.15784 5)">
<stop offset="0.015625" stop-color="white"/>
<stop offset="1" stop-color="#BB9F4D" stop-opacity="0"/>
</radialGradient>
<radialGradient id="paint50_radial_129_871" cx="0" cy="0" r="1" gradientUnits="userSpaceOnUse" gradientTransform="translate(46.5815 1509) rotate(90) scale(12.3788 12)">
<stop offset="0.145833" stop-color="white"/>
<stop offset="1" stop-color="#EFE46F" stop-opacity="0.45"/>
</radialGradient>
<radialGradient id="paint51_radial_129_871" cx="0" cy="0" r="1" gradientUnits="userSpaceOnUse" gradientTransform="translate(128.075 779) rotate(90) scale(12.3788 12)">
<stop offset="0.145833" stop-color="white"/>
<stop offset="1" stop-color="#EFE46F" stop-opacity="0.45"/>
</radialGradient>
</defs>
</svg>
