<svg width="312" height="1670" viewBox="0 0 312 1670" fill="none" xmlns="http://www.w3.org/2000/svg">
<g style="mix-blend-mode:color-dodge">
<rect width="10" height="10.3157" transform="matrix(0 -1 -1 0 295.029 960)" fill="black"/>
<ellipse cx="5" cy="5.15784" rx="5" ry="5.15784" transform="matrix(0 -1 -1 0 295.029 960)" fill="url(#paint0_radial_129_1504)"/>
</g>
<g style="mix-blend-mode:color-dodge">
<rect width="10" height="10.3157" transform="matrix(0 -1 -1 0 116.567 603)" fill="black"/>
<ellipse cx="5" cy="5.15784" rx="5" ry="5.15784" transform="matrix(0 -1 -1 0 116.567 603)" fill="url(#paint1_radial_129_1504)"/>
</g>
<g style="mix-blend-mode:color-dodge">
<rect width="10" height="10.3157" transform="matrix(0 -1 -1 0 84.5886 678)" fill="black"/>
<ellipse cx="5" cy="5.15784" rx="5" ry="5.15784" transform="matrix(0 -1 -1 0 84.5886 678)" fill="url(#paint2_radial_129_1504)"/>
</g>
<g style="mix-blend-mode:color-dodge">
<rect width="10" height="10.3157" transform="matrix(0 -1 -1 0 321.849 371)" fill="black"/>
<ellipse cx="5" cy="5.15784" rx="5" ry="5.15784" transform="matrix(0 -1 -1 0 321.849 371)" fill="url(#paint3_radial_129_1504)"/>
</g>
<g style="mix-blend-mode:color-dodge">
<rect width="10" height="10.3157" transform="matrix(0 -1 -1 0 253.766 280)" fill="black"/>
<ellipse cx="5" cy="5.15784" rx="5" ry="5.15784" transform="matrix(0 -1 -1 0 253.766 280)" fill="url(#paint4_radial_129_1504)"/>
</g>
<g style="mix-blend-mode:color-dodge">
<rect width="10" height="10.3157" transform="matrix(0 -1 -1 0 284.713 614)" fill="black"/>
<ellipse cx="5" cy="5.15784" rx="5" ry="5.15784" transform="matrix(0 -1 -1 0 284.713 614)" fill="url(#paint5_radial_129_1504)"/>
</g>
<g style="mix-blend-mode:color-dodge">
<rect width="10" height="10.3157" transform="matrix(0 -1 -1 0 244.482 1037)" fill="black"/>
<ellipse cx="5" cy="5.15784" rx="5" ry="5.15784" transform="matrix(0 -1 -1 0 244.482 1037)" fill="url(#paint6_radial_129_1504)"/>
</g>
<g style="mix-blend-mode:color-dodge">
<rect width="10" height="10.3157" transform="matrix(0 -1 -1 0 260.987 95)" fill="black"/>
<ellipse cx="5" cy="5.15784" rx="5" ry="5.15784" transform="matrix(0 -1 -1 0 260.987 95)" fill="url(#paint7_radial_129_1504)"/>
</g>
<g style="mix-blend-mode:color-dodge">
<rect width="10" height="10.3157" transform="matrix(0 -1 -1 0 204.25 491)" fill="black"/>
<ellipse cx="5" cy="5.15784" rx="5" ry="5.15784" transform="matrix(0 -1 -1 0 204.25 491)" fill="url(#paint8_radial_129_1504)"/>
</g>
<g style="mix-blend-mode:color-dodge">
<rect width="10" height="10.3157" transform="matrix(0 -1 -1 0 131.009 215)" fill="black"/>
<ellipse cx="5" cy="5.15784" rx="5" ry="5.15784" transform="matrix(0 -1 -1 0 131.009 215)" fill="url(#paint9_radial_129_1504)"/>
</g>
<g style="mix-blend-mode:color-dodge">
<rect width="10" height="10.3157" transform="matrix(0 -1 -1 0 189.809 371)" fill="black"/>
<ellipse cx="5" cy="5.15784" rx="5" ry="5.15784" transform="matrix(0 -1 -1 0 189.809 371)" fill="url(#paint10_radial_129_1504)"/>
</g>
<g style="mix-blend-mode:color-dodge">
<rect width="10" height="10.3157" transform="matrix(0 -1 -1 0 104.188 467)" fill="black"/>
<ellipse cx="5" cy="5.15784" rx="5" ry="5.15784" transform="matrix(0 -1 -1 0 104.188 467)" fill="url(#paint11_radial_129_1504)"/>
</g>
<g style="mix-blend-mode:color-dodge">
<rect width="10" height="10.3157" transform="matrix(0 -1 -1 0 214.566 987)" fill="black"/>
<ellipse cx="5" cy="5.15784" rx="5" ry="5.15784" transform="matrix(0 -1 -1 0 214.566 987)" fill="url(#paint12_radial_129_1504)"/>
</g>
<g style="mix-blend-mode:color-dodge">
<rect width="10" height="10.3157" transform="matrix(0 -1 -1 0 316.691 545)" fill="black"/>
<ellipse cx="5" cy="5.15784" rx="5" ry="5.15784" transform="matrix(0 -1 -1 0 316.691 545)" fill="url(#paint13_radial_129_1504)"/>
</g>
<g style="mix-blend-mode:color-dodge">
<rect width="10" height="10.3157" transform="matrix(0 -1 -1 0 59.8311 1144)" fill="black"/>
<ellipse cx="5" cy="5.15784" rx="5" ry="5.15784" transform="matrix(0 -1 -1 0 59.8311 1144)" fill="url(#paint14_radial_129_1504)"/>
</g>
<g style="mix-blend-mode:color-dodge">
<rect width="10" height="10.3157" transform="matrix(0 -1 -1 0 134.104 1174)" fill="black"/>
<ellipse cx="5" cy="5.15784" rx="5" ry="5.15784" transform="matrix(0 -1 -1 0 134.104 1174)" fill="url(#paint15_radial_129_1504)"/>
</g>
<g style="mix-blend-mode:color-dodge">
<rect width="10" height="10.3157" transform="matrix(0 -1 -1 0 313.597 568)" fill="black"/>
<ellipse cx="5" cy="5.15784" rx="5" ry="5.15784" transform="matrix(0 -1 -1 0 313.597 568)" fill="url(#paint16_radial_129_1504)"/>
</g>
<g style="mix-blend-mode:color-dodge">
<rect width="10" height="10.3157" transform="matrix(0 -1 -1 0 277.492 666)" fill="black"/>
<ellipse cx="5" cy="5.15784" rx="5" ry="5.15784" transform="matrix(0 -1 -1 0 277.492 666)" fill="url(#paint17_radial_129_1504)"/>
</g>
<g style="mix-blend-mode:color-dodge">
<rect width="10" height="10.3157" transform="matrix(0 -1 -1 0 267.176 545)" fill="black"/>
<ellipse cx="5" cy="5.15784" rx="5" ry="5.15784" transform="matrix(0 -1 -1 0 267.176 545)" fill="url(#paint18_radial_129_1504)"/>
</g>
<g style="mix-blend-mode:color-dodge">
<rect width="10" height="10.3157" transform="matrix(0 -1 -1 0 234.166 751)" fill="black"/>
<ellipse cx="5" cy="5.15784" rx="5" ry="5.15784" transform="matrix(0 -1 -1 0 234.166 751)" fill="url(#paint19_radial_129_1504)"/>
</g>
<g style="mix-blend-mode:color-dodge">
<rect width="10" height="10.3157" transform="matrix(0 -1 -1 0 260.987 732)" fill="black"/>
<ellipse cx="5" cy="5.15784" rx="5" ry="5.15784" transform="matrix(0 -1 -1 0 260.987 732)" fill="url(#paint20_radial_129_1504)"/>
</g>
<g style="mix-blend-mode:color-dodge">
<rect width="10" height="10.3157" transform="matrix(0 -1 -1 0 313.597 852)" fill="black"/>
<ellipse cx="5" cy="5.15784" rx="5" ry="5.15784" transform="matrix(0 -1 -1 0 313.597 852)" fill="url(#paint21_radial_129_1504)"/>
</g>
<g style="mix-blend-mode:color-dodge">
<rect width="10" height="10.3157" transform="matrix(0 -1 -1 0 253.766 806)" fill="black"/>
<ellipse cx="5" cy="5.15784" rx="5" ry="5.15784" transform="matrix(0 -1 -1 0 253.766 806)" fill="url(#paint22_radial_129_1504)"/>
</g>
<g style="mix-blend-mode:color-dodge">
<rect width="10" height="10.3157" transform="matrix(0 -1 -1 0 212.503 992)" fill="black"/>
<ellipse cx="5" cy="5.15784" rx="5" ry="5.15784" transform="matrix(0 -1 -1 0 212.503 992)" fill="url(#paint23_radial_129_1504)"/>
</g>
<g style="mix-blend-mode:color-dodge">
<rect width="10" height="10.3157" transform="matrix(0 -1 -1 0 207.345 1084)" fill="black"/>
<ellipse cx="5" cy="5.15784" rx="5" ry="5.15784" transform="matrix(0 -1 -1 0 207.345 1084)" fill="url(#paint24_radial_129_1504)"/>
</g>
<g style="mix-blend-mode:color-dodge">
<rect width="10" height="10.3157" transform="matrix(0 -1 -1 0 300.186 1089)" fill="black"/>
<ellipse cx="5" cy="5.15784" rx="5" ry="5.15784" transform="matrix(0 -1 -1 0 300.186 1089)" fill="url(#paint25_radial_129_1504)"/>
</g>
<g style="mix-blend-mode:color-dodge">
<rect width="10" height="10.3157" transform="matrix(0 -1 -1 0 287.808 1193)" fill="black"/>
<ellipse cx="5" cy="5.15784" rx="5" ry="5.15784" transform="matrix(0 -1 -1 0 287.808 1193)" fill="url(#paint26_radial_129_1504)"/>
</g>
<g style="mix-blend-mode:color-dodge">
<rect width="10" height="10.3157" transform="matrix(0 -1 -1 0 103.157 728)" fill="black"/>
<ellipse cx="5" cy="5.15784" rx="5" ry="5.15784" transform="matrix(0 -1 -1 0 103.157 728)" fill="url(#paint27_radial_129_1504)"/>
</g>
<g style="mix-blend-mode:color-dodge">
<rect width="10" height="10.3157" transform="matrix(0 -1 -1 0 239.324 429)" fill="black"/>
<ellipse cx="5" cy="5.15784" rx="5" ry="5.15784" transform="matrix(0 -1 -1 0 239.324 429)" fill="url(#paint28_radial_129_1504)"/>
</g>
<g style="mix-blend-mode:color-dodge">
<rect width="10" height="10.3157" transform="matrix(0 -1 -1 0 118.63 545)" fill="black"/>
<ellipse cx="5" cy="5.15784" rx="5" ry="5.15784" transform="matrix(0 -1 -1 0 118.63 545)" fill="url(#paint29_radial_129_1504)"/>
</g>
<g style="mix-blend-mode:color-dodge">
<rect width="10" height="10.3157" transform="matrix(0 -1 -1 0 183.619 523)" fill="black"/>
<ellipse cx="5" cy="5.15784" rx="5" ry="5.15784" transform="matrix(0 -1 -1 0 183.619 523)" fill="url(#paint30_radial_129_1504)"/>
</g>
<g style="mix-blend-mode:color-dodge">
<rect width="10" height="10.3157" transform="matrix(0 -1 -1 0 279.555 336)" fill="black"/>
<ellipse cx="5" cy="5.15784" rx="5" ry="5.15784" transform="matrix(0 -1 -1 0 279.555 336)" fill="url(#paint31_radial_129_1504)"/>
</g>
<g style="mix-blend-mode:color-dodge">
<rect width="10" height="10.3157" transform="matrix(0 -1 -1 0 182.588 292)" fill="black"/>
<ellipse cx="5" cy="5.15784" rx="5" ry="5.15784" transform="matrix(0 -1 -1 0 182.588 292)" fill="url(#paint32_radial_129_1504)"/>
</g>
<g style="mix-blend-mode:color-dodge">
<rect width="10" height="10.3157" transform="matrix(0 -1 -1 0 311.534 108)" fill="black"/>
<ellipse cx="5" cy="5.15784" rx="5" ry="5.15784" transform="matrix(0 -1 -1 0 311.534 108)" fill="url(#paint33_radial_129_1504)"/>
</g>
<g style="mix-blend-mode:color-dodge">
<rect width="10" height="10.3157" transform="matrix(0 -1 -1 0 207.345 712)" fill="black"/>
<ellipse cx="5" cy="5.15784" rx="5" ry="5.15784" transform="matrix(0 -1 -1 0 207.345 712)" fill="url(#paint34_radial_129_1504)"/>
</g>
<g style="mix-blend-mode:color-dodge">
<rect width="10" height="10.3157" transform="matrix(0 -1 -1 0 183.619 822)" fill="black"/>
<ellipse cx="5" cy="5.15784" rx="5" ry="5.15784" transform="matrix(0 -1 -1 0 183.619 822)" fill="url(#paint35_radial_129_1504)"/>
</g>
<g style="mix-blend-mode:color-dodge">
<rect width="10" height="10.3157" transform="matrix(0 -1 -1 0 125.851 873)" fill="black"/>
<ellipse cx="5" cy="5.15784" rx="5" ry="5.15784" transform="matrix(0 -1 -1 0 125.851 873)" fill="url(#paint36_radial_129_1504)"/>
</g>
<g style="mix-blend-mode:color-dodge">
<rect width="10" height="10.3157" transform="matrix(0 -1 -1 0 183.619 876)" fill="black"/>
<ellipse cx="5" cy="5.15784" rx="5" ry="5.15784" transform="matrix(0 -1 -1 0 183.619 876)" fill="url(#paint37_radial_129_1504)"/>
</g>
<g style="mix-blend-mode:color-dodge">
<rect width="10" height="10.3157" transform="matrix(0 -1 -1 0 274.397 1268)" fill="black"/>
<ellipse cx="5" cy="5.15784" rx="5" ry="5.15784" transform="matrix(0 -1 -1 0 274.397 1268)" fill="url(#paint38_radial_129_1504)"/>
</g>
<g style="mix-blend-mode:color-dodge">
<rect width="10" height="10.3157" transform="matrix(0 -1 -1 0 305.344 1309)" fill="black"/>
<ellipse cx="5" cy="5.15784" rx="5" ry="5.15784" transform="matrix(0 -1 -1 0 305.344 1309)" fill="url(#paint39_radial_129_1504)"/>
</g>
<g style="mix-blend-mode:color-dodge">
<rect width="10" height="10.3157" transform="matrix(0 -1 -1 0 227.977 1296)" fill="black"/>
<ellipse cx="5" cy="5.15784" rx="5" ry="5.15784" transform="matrix(0 -1 -1 0 227.977 1296)" fill="url(#paint40_radial_129_1504)"/>
</g>
<g style="mix-blend-mode:color-dodge">
<rect width="10" height="10.3157" transform="matrix(0 -1 -1 0 166.083 1233)" fill="black"/>
<ellipse cx="5" cy="5.15784" rx="5" ry="5.15784" transform="matrix(0 -1 -1 0 166.083 1233)" fill="url(#paint41_radial_129_1504)"/>
</g>
<g style="mix-blend-mode:color-dodge">
<rect width="10" height="10.3157" transform="matrix(0 -1 -1 0 155.767 1286)" fill="black"/>
<ellipse cx="5" cy="5.15784" rx="5" ry="5.15784" transform="matrix(0 -1 -1 0 155.767 1286)" fill="url(#paint42_radial_129_1504)"/>
</g>
<g style="mix-blend-mode:color-dodge">
<rect width="10" height="10.3157" transform="matrix(0 -1 -1 0 214.566 1390)" fill="black"/>
<ellipse cx="5" cy="5.15784" rx="5" ry="5.15784" transform="matrix(0 -1 -1 0 214.566 1390)" fill="url(#paint43_radial_129_1504)"/>
</g>
<g style="mix-blend-mode:color-dodge">
<rect width="10" height="10.3157" transform="matrix(0 -1 -1 0 217.661 1547)" fill="black"/>
<ellipse cx="5" cy="5.15784" rx="5" ry="5.15784" transform="matrix(0 -1 -1 0 217.661 1547)" fill="url(#paint44_radial_129_1504)"/>
</g>
<g style="mix-blend-mode:color-dodge">
<rect width="10" height="10.3157" transform="matrix(0 -1 -1 0 137.198 1562)" fill="black"/>
<ellipse cx="5" cy="5.15784" rx="5" ry="5.15784" transform="matrix(0 -1 -1 0 137.198 1562)" fill="url(#paint45_radial_129_1504)"/>
</g>
<g style="mix-blend-mode:color-dodge">
<rect width="10" height="10.3157" transform="matrix(0 -1 -1 0 140.293 1631)" fill="black"/>
<ellipse cx="5" cy="5.15784" rx="5" ry="5.15784" transform="matrix(0 -1 -1 0 140.293 1631)" fill="url(#paint46_radial_129_1504)"/>
</g>
<g style="mix-blend-mode:color-dodge">
<rect width="10" height="10.3157" transform="matrix(0 -1 -1 0 10.3157 1577)" fill="black"/>
<ellipse cx="5" cy="5.15784" rx="5" ry="5.15784" transform="matrix(0 -1 -1 0 10.3157 1577)" fill="url(#paint47_radial_129_1504)"/>
</g>
<g style="mix-blend-mode:color-dodge">
<rect width="10" height="10.3157" transform="matrix(0 -1 -1 0 72.2097 1380)" fill="black"/>
<ellipse cx="5" cy="5.15784" rx="5" ry="5.15784" transform="matrix(0 -1 -1 0 72.2097 1380)" fill="url(#paint48_radial_129_1504)"/>
</g>
<g style="mix-blend-mode:color-dodge">
<rect width="10" height="10.3157" transform="matrix(0 -1 -1 0 46.4207 1281)" fill="black"/>
<ellipse cx="5" cy="5.15784" rx="5" ry="5.15784" transform="matrix(0 -1 -1 0 46.4207 1281)" fill="url(#paint49_radial_129_1504)"/>
</g>
<g style="mix-blend-mode:color-dodge">
<rect width="10" height="10.3157" transform="matrix(0 -1 -1 0 46.4207 1337)" fill="black"/>
<ellipse cx="5" cy="5.15784" rx="5" ry="5.15784" transform="matrix(0 -1 -1 0 46.4207 1337)" fill="url(#paint50_radial_129_1504)"/>
</g>
<g style="mix-blend-mode:color-dodge">
<rect width="10" height="10.3157" transform="matrix(0 -1 -1 0 122.757 1493)" fill="black"/>
<ellipse cx="5" cy="5.15784" rx="5" ry="5.15784" transform="matrix(0 -1 -1 0 122.757 1493)" fill="url(#paint51_radial_129_1504)"/>
</g>
<g style="mix-blend-mode:color-dodge">
<rect width="10" height="10.3157" transform="matrix(0 -1 -1 0 289.871 1600)" fill="black"/>
<ellipse cx="5" cy="5.15784" rx="5" ry="5.15784" transform="matrix(0 -1 -1 0 289.871 1600)" fill="url(#paint52_radial_129_1504)"/>
</g>
<g style="mix-blend-mode:color-dodge">
<rect width="10" height="10.3157" transform="matrix(0 -1 -1 0 282.65 278)" fill="black"/>
<ellipse cx="5" cy="5.15784" rx="5" ry="5.15784" transform="matrix(0 -1 -1 0 282.65 278)" fill="url(#paint53_radial_129_1504)"/>
</g>
<g style="mix-blend-mode:color-dodge">
<rect width="10" height="10.3157" transform="matrix(0 -1 -1 0 289.871 741)" fill="black"/>
<ellipse cx="5" cy="5.15784" rx="5" ry="5.15784" transform="matrix(0 -1 -1 0 289.871 741)" fill="url(#paint54_radial_129_1504)"/>
</g>
<g style="mix-blend-mode:color-dodge">
<rect width="10" height="10.3157" transform="matrix(0 -1 -1 0 219.724 911)" fill="black"/>
<ellipse cx="5" cy="5.15784" rx="5" ry="5.15784" transform="matrix(0 -1 -1 0 219.724 911)" fill="url(#paint55_radial_129_1504)"/>
</g>
<g style="mix-blend-mode:color-dodge">
<rect width="10" height="10.3157" transform="matrix(0 -1 -1 0 289.871 911)" fill="black"/>
<ellipse cx="5" cy="5.15784" rx="5" ry="5.15784" transform="matrix(0 -1 -1 0 289.871 911)" fill="url(#paint56_radial_129_1504)"/>
</g>
<g style="mix-blend-mode:color-dodge">
<rect width="24" height="24.7576" transform="matrix(0 -1 -1 0 254.797 1521)" fill="black"/>
<ellipse cx="12" cy="12.3788" rx="12" ry="12.3788" transform="matrix(0 -1 -1 0 254.797 1521)" fill="url(#paint57_radial_129_1504)"/>
</g>
<g style="mix-blend-mode:color-dodge">
<rect width="24" height="24.7576" transform="matrix(0 -1 -1 0 173.303 791)" fill="black"/>
<ellipse cx="12" cy="12.3788" rx="12" ry="12.3788" transform="matrix(0 -1 -1 0 173.303 791)" fill="url(#paint58_radial_129_1504)"/>
</g>
<defs>
<radialGradient id="paint0_radial_129_1504" cx="0" cy="0" r="1" gradientUnits="userSpaceOnUse" gradientTransform="translate(5 5.15784) rotate(90) scale(5.15784 5)">
<stop offset="0.145833" stop-color="white"/>
<stop offset="1" stop-color="#EFE46F" stop-opacity="0.45"/>
</radialGradient>
<radialGradient id="paint1_radial_129_1504" cx="0" cy="0" r="1" gradientUnits="userSpaceOnUse" gradientTransform="translate(5 5.15784) rotate(90) scale(5.15784 5)">
<stop offset="0.145833" stop-color="white"/>
<stop offset="1" stop-color="#EFE46F" stop-opacity="0.45"/>
</radialGradient>
<radialGradient id="paint2_radial_129_1504" cx="0" cy="0" r="1" gradientUnits="userSpaceOnUse" gradientTransform="translate(5 5.15784) rotate(90) scale(5.15784 5)">
<stop offset="0.145833" stop-color="white"/>
<stop offset="1" stop-color="#EFE46F" stop-opacity="0.45"/>
</radialGradient>
<radialGradient id="paint3_radial_129_1504" cx="0" cy="0" r="1" gradientUnits="userSpaceOnUse" gradientTransform="translate(5 5.15784) rotate(90) scale(5.15784 5)">
<stop offset="0.145833" stop-color="white"/>
<stop offset="1" stop-color="#EFE46F" stop-opacity="0.45"/>
</radialGradient>
<radialGradient id="paint4_radial_129_1504" cx="0" cy="0" r="1" gradientUnits="userSpaceOnUse" gradientTransform="translate(5 5.15784) rotate(90) scale(5.15784 5)">
<stop offset="0.145833" stop-color="white"/>
<stop offset="1" stop-color="#EFE46F" stop-opacity="0.45"/>
</radialGradient>
<radialGradient id="paint5_radial_129_1504" cx="0" cy="0" r="1" gradientUnits="userSpaceOnUse" gradientTransform="translate(5 5.15784) rotate(90) scale(5.15784 5)">
<stop offset="0.145833" stop-color="white"/>
<stop offset="1" stop-color="#EFE46F" stop-opacity="0.45"/>
</radialGradient>
<radialGradient id="paint6_radial_129_1504" cx="0" cy="0" r="1" gradientUnits="userSpaceOnUse" gradientTransform="translate(5 5.15784) rotate(90) scale(5.15784 5)">
<stop offset="0.145833" stop-color="white"/>
<stop offset="1" stop-color="#EFE46F" stop-opacity="0.45"/>
</radialGradient>
<radialGradient id="paint7_radial_129_1504" cx="0" cy="0" r="1" gradientUnits="userSpaceOnUse" gradientTransform="translate(5 5.15784) rotate(90) scale(5.15784 5)">
<stop offset="0.145833" stop-color="white"/>
<stop offset="1" stop-color="#EFE46F" stop-opacity="0.45"/>
</radialGradient>
<radialGradient id="paint8_radial_129_1504" cx="0" cy="0" r="1" gradientUnits="userSpaceOnUse" gradientTransform="translate(5 5.15784) rotate(90) scale(5.15784 5)">
<stop offset="0.145833" stop-color="white"/>
<stop offset="1" stop-color="#EFE46F" stop-opacity="0.45"/>
</radialGradient>
<radialGradient id="paint9_radial_129_1504" cx="0" cy="0" r="1" gradientUnits="userSpaceOnUse" gradientTransform="translate(5 5.15784) rotate(90) scale(5.15784 5)">
<stop offset="0.145833" stop-color="white"/>
<stop offset="1" stop-color="#EFE46F" stop-opacity="0.45"/>
</radialGradient>
<radialGradient id="paint10_radial_129_1504" cx="0" cy="0" r="1" gradientUnits="userSpaceOnUse" gradientTransform="translate(5 5.15784) rotate(90) scale(5.15784 5)">
<stop offset="0.145833" stop-color="white"/>
<stop offset="1" stop-color="#EFE46F" stop-opacity="0.45"/>
</radialGradient>
<radialGradient id="paint11_radial_129_1504" cx="0" cy="0" r="1" gradientUnits="userSpaceOnUse" gradientTransform="translate(5 5.15784) rotate(90) scale(5.15784 5)">
<stop offset="0.145833" stop-color="white"/>
<stop offset="1" stop-color="#EFE46F" stop-opacity="0.45"/>
</radialGradient>
<radialGradient id="paint12_radial_129_1504" cx="0" cy="0" r="1" gradientUnits="userSpaceOnUse" gradientTransform="translate(5 5.15784) rotate(90) scale(5.15784 5)">
<stop offset="0.145833" stop-color="white"/>
<stop offset="1" stop-color="#EFE46F" stop-opacity="0.45"/>
</radialGradient>
<radialGradient id="paint13_radial_129_1504" cx="0" cy="0" r="1" gradientUnits="userSpaceOnUse" gradientTransform="translate(5 5.15784) rotate(90) scale(5.15784 5)">
<stop offset="0.145833" stop-color="white"/>
<stop offset="1" stop-color="#EFE46F" stop-opacity="0.45"/>
</radialGradient>
<radialGradient id="paint14_radial_129_1504" cx="0" cy="0" r="1" gradientUnits="userSpaceOnUse" gradientTransform="translate(5 5.15784) rotate(90) scale(5.15784 5)">
<stop offset="0.145833" stop-color="white"/>
<stop offset="1" stop-color="#EFE46F" stop-opacity="0.45"/>
</radialGradient>
<radialGradient id="paint15_radial_129_1504" cx="0" cy="0" r="1" gradientUnits="userSpaceOnUse" gradientTransform="translate(5 5.15784) rotate(90) scale(5.15784 5)">
<stop offset="0.145833" stop-color="white"/>
<stop offset="1" stop-color="#EFE46F" stop-opacity="0.45"/>
</radialGradient>
<radialGradient id="paint16_radial_129_1504" cx="0" cy="0" r="1" gradientUnits="userSpaceOnUse" gradientTransform="translate(5 5.15784) rotate(90) scale(5.15784 5)">
<stop offset="0.015625" stop-color="white"/>
<stop offset="1" stop-color="#BB9F4D" stop-opacity="0"/>
</radialGradient>
<radialGradient id="paint17_radial_129_1504" cx="0" cy="0" r="1" gradientUnits="userSpaceOnUse" gradientTransform="translate(5 5.15784) rotate(90) scale(5.15784 5)">
<stop offset="0.015625" stop-color="white"/>
<stop offset="1" stop-color="#BB9F4D" stop-opacity="0"/>
</radialGradient>
<radialGradient id="paint18_radial_129_1504" cx="0" cy="0" r="1" gradientUnits="userSpaceOnUse" gradientTransform="translate(5 5.15784) rotate(90) scale(5.15784 5)">
<stop offset="0.015625" stop-color="white"/>
<stop offset="1" stop-color="#BB9F4D" stop-opacity="0"/>
</radialGradient>
<radialGradient id="paint19_radial_129_1504" cx="0" cy="0" r="1" gradientUnits="userSpaceOnUse" gradientTransform="translate(5 5.15784) rotate(90) scale(5.15784 5)">
<stop offset="0.015625" stop-color="white"/>
<stop offset="1" stop-color="#BB9F4D" stop-opacity="0"/>
</radialGradient>
<radialGradient id="paint20_radial_129_1504" cx="0" cy="0" r="1" gradientUnits="userSpaceOnUse" gradientTransform="translate(5 5.15784) rotate(90) scale(5.15784 5)">
<stop offset="0.015625" stop-color="white"/>
<stop offset="1" stop-color="#BB9F4D" stop-opacity="0"/>
</radialGradient>
<radialGradient id="paint21_radial_129_1504" cx="0" cy="0" r="1" gradientUnits="userSpaceOnUse" gradientTransform="translate(5 5.15784) rotate(90) scale(5.15784 5)">
<stop offset="0.015625" stop-color="white"/>
<stop offset="1" stop-color="#BB9F4D" stop-opacity="0"/>
</radialGradient>
<radialGradient id="paint22_radial_129_1504" cx="0" cy="0" r="1" gradientUnits="userSpaceOnUse" gradientTransform="translate(5 5.15784) rotate(90) scale(5.15784 5)">
<stop offset="0.015625" stop-color="white"/>
<stop offset="1" stop-color="#BB9F4D" stop-opacity="0"/>
</radialGradient>
<radialGradient id="paint23_radial_129_1504" cx="0" cy="0" r="1" gradientUnits="userSpaceOnUse" gradientTransform="translate(5 5.15784) rotate(90) scale(5.15784 5)">
<stop offset="0.015625" stop-color="white"/>
<stop offset="1" stop-color="#BB9F4D" stop-opacity="0"/>
</radialGradient>
<radialGradient id="paint24_radial_129_1504" cx="0" cy="0" r="1" gradientUnits="userSpaceOnUse" gradientTransform="translate(5 5.15784) rotate(90) scale(5.15784 5)">
<stop offset="0.015625" stop-color="white"/>
<stop offset="1" stop-color="#BB9F4D" stop-opacity="0"/>
</radialGradient>
<radialGradient id="paint25_radial_129_1504" cx="0" cy="0" r="1" gradientUnits="userSpaceOnUse" gradientTransform="translate(5 5.15784) rotate(90) scale(5.15784 5)">
<stop offset="0.015625" stop-color="white"/>
<stop offset="1" stop-color="#BB9F4D" stop-opacity="0"/>
</radialGradient>
<radialGradient id="paint26_radial_129_1504" cx="0" cy="0" r="1" gradientUnits="userSpaceOnUse" gradientTransform="translate(5 5.15784) rotate(90) scale(5.15784 5)">
<stop offset="0.015625" stop-color="white"/>
<stop offset="1" stop-color="#BB9F4D" stop-opacity="0"/>
</radialGradient>
<radialGradient id="paint27_radial_129_1504" cx="0" cy="0" r="1" gradientUnits="userSpaceOnUse" gradientTransform="translate(5 5.15784) rotate(90) scale(5.15784 5)">
<stop offset="0.015625" stop-color="white"/>
<stop offset="1" stop-color="#BB9F4D" stop-opacity="0"/>
</radialGradient>
<radialGradient id="paint28_radial_129_1504" cx="0" cy="0" r="1" gradientUnits="userSpaceOnUse" gradientTransform="translate(5 5.15784) rotate(90) scale(5.15784 5)">
<stop offset="0.015625" stop-color="white"/>
<stop offset="1" stop-color="#BB9F4D" stop-opacity="0"/>
</radialGradient>
<radialGradient id="paint29_radial_129_1504" cx="0" cy="0" r="1" gradientUnits="userSpaceOnUse" gradientTransform="translate(5 5.15784) rotate(90) scale(5.15784 5)">
<stop offset="0.015625" stop-color="white"/>
<stop offset="1" stop-color="#BB9F4D" stop-opacity="0"/>
</radialGradient>
<radialGradient id="paint30_radial_129_1504" cx="0" cy="0" r="1" gradientUnits="userSpaceOnUse" gradientTransform="translate(5 5.15784) rotate(90) scale(5.15784 5)">
<stop offset="0.015625" stop-color="white"/>
<stop offset="1" stop-color="#BB9F4D" stop-opacity="0"/>
</radialGradient>
<radialGradient id="paint31_radial_129_1504" cx="0" cy="0" r="1" gradientUnits="userSpaceOnUse" gradientTransform="translate(5 5.15784) rotate(90) scale(5.15784 5)">
<stop offset="0.015625" stop-color="white"/>
<stop offset="1" stop-color="#BB9F4D" stop-opacity="0"/>
</radialGradient>
<radialGradient id="paint32_radial_129_1504" cx="0" cy="0" r="1" gradientUnits="userSpaceOnUse" gradientTransform="translate(5 5.15784) rotate(90) scale(5.15784 5)">
<stop offset="0.015625" stop-color="white"/>
<stop offset="1" stop-color="#BB9F4D" stop-opacity="0"/>
</radialGradient>
<radialGradient id="paint33_radial_129_1504" cx="0" cy="0" r="1" gradientUnits="userSpaceOnUse" gradientTransform="translate(5 5.15784) rotate(90) scale(5.15784 5)">
<stop offset="0.015625" stop-color="white"/>
<stop offset="1" stop-color="#BB9F4D" stop-opacity="0"/>
</radialGradient>
<radialGradient id="paint34_radial_129_1504" cx="0" cy="0" r="1" gradientUnits="userSpaceOnUse" gradientTransform="translate(5 5.15784) rotate(90) scale(5.15784 5)">
<stop offset="0.015625" stop-color="white"/>
<stop offset="1" stop-color="#BB9F4D" stop-opacity="0"/>
</radialGradient>
<radialGradient id="paint35_radial_129_1504" cx="0" cy="0" r="1" gradientUnits="userSpaceOnUse" gradientTransform="translate(5 5.15784) rotate(90) scale(5.15784 5)">
<stop offset="0.015625" stop-color="white"/>
<stop offset="1" stop-color="#BB9F4D" stop-opacity="0"/>
</radialGradient>
<radialGradient id="paint36_radial_129_1504" cx="0" cy="0" r="1" gradientUnits="userSpaceOnUse" gradientTransform="translate(5 5.15784) rotate(90) scale(5.15784 5)">
<stop offset="0.015625" stop-color="white"/>
<stop offset="1" stop-color="#BB9F4D" stop-opacity="0"/>
</radialGradient>
<radialGradient id="paint37_radial_129_1504" cx="0" cy="0" r="1" gradientUnits="userSpaceOnUse" gradientTransform="translate(5 5.15784) rotate(90) scale(5.15784 5)">
<stop offset="0.015625" stop-color="white"/>
<stop offset="1" stop-color="#BB9F4D" stop-opacity="0"/>
</radialGradient>
<radialGradient id="paint38_radial_129_1504" cx="0" cy="0" r="1" gradientUnits="userSpaceOnUse" gradientTransform="translate(5 5.15784) rotate(90) scale(5.15784 5)">
<stop offset="0.015625" stop-color="white"/>
<stop offset="1" stop-color="#BB9F4D" stop-opacity="0"/>
</radialGradient>
<radialGradient id="paint39_radial_129_1504" cx="0" cy="0" r="1" gradientUnits="userSpaceOnUse" gradientTransform="translate(5 5.15784) rotate(90) scale(5.15784 5)">
<stop offset="0.015625" stop-color="white"/>
<stop offset="1" stop-color="#BB9F4D" stop-opacity="0"/>
</radialGradient>
<radialGradient id="paint40_radial_129_1504" cx="0" cy="0" r="1" gradientUnits="userSpaceOnUse" gradientTransform="translate(5 5.15784) rotate(90) scale(5.15784 5)">
<stop offset="0.015625" stop-color="white"/>
<stop offset="1" stop-color="#BB9F4D" stop-opacity="0"/>
</radialGradient>
<radialGradient id="paint41_radial_129_1504" cx="0" cy="0" r="1" gradientUnits="userSpaceOnUse" gradientTransform="translate(5 5.15784) rotate(90) scale(5.15784 5)">
<stop offset="0.015625" stop-color="white"/>
<stop offset="1" stop-color="#BB9F4D" stop-opacity="0"/>
</radialGradient>
<radialGradient id="paint42_radial_129_1504" cx="0" cy="0" r="1" gradientUnits="userSpaceOnUse" gradientTransform="translate(5 5.15784) rotate(90) scale(5.15784 5)">
<stop offset="0.015625" stop-color="white"/>
<stop offset="1" stop-color="#BB9F4D" stop-opacity="0"/>
</radialGradient>
<radialGradient id="paint43_radial_129_1504" cx="0" cy="0" r="1" gradientUnits="userSpaceOnUse" gradientTransform="translate(5 5.15784) rotate(90) scale(5.15784 5)">
<stop offset="0.015625" stop-color="white"/>
<stop offset="1" stop-color="#BB9F4D" stop-opacity="0"/>
</radialGradient>
<radialGradient id="paint44_radial_129_1504" cx="0" cy="0" r="1" gradientUnits="userSpaceOnUse" gradientTransform="translate(5 5.15784) rotate(90) scale(5.15784 5)">
<stop offset="0.015625" stop-color="white"/>
<stop offset="1" stop-color="#BB9F4D" stop-opacity="0"/>
</radialGradient>
<radialGradient id="paint45_radial_129_1504" cx="0" cy="0" r="1" gradientUnits="userSpaceOnUse" gradientTransform="translate(5 5.15784) rotate(90) scale(5.15784 5)">
<stop offset="0.015625" stop-color="white"/>
<stop offset="1" stop-color="#BB9F4D" stop-opacity="0"/>
</radialGradient>
<radialGradient id="paint46_radial_129_1504" cx="0" cy="0" r="1" gradientUnits="userSpaceOnUse" gradientTransform="translate(5 5.15784) rotate(90) scale(5.15784 5)">
<stop offset="0.015625" stop-color="white"/>
<stop offset="1" stop-color="#BB9F4D" stop-opacity="0"/>
</radialGradient>
<radialGradient id="paint47_radial_129_1504" cx="0" cy="0" r="1" gradientUnits="userSpaceOnUse" gradientTransform="translate(5 5.15784) rotate(90) scale(5.15784 5)">
<stop offset="0.015625" stop-color="white"/>
<stop offset="1" stop-color="#BB9F4D" stop-opacity="0"/>
</radialGradient>
<radialGradient id="paint48_radial_129_1504" cx="0" cy="0" r="1" gradientUnits="userSpaceOnUse" gradientTransform="translate(5 5.15784) rotate(90) scale(5.15784 5)">
<stop offset="0.015625" stop-color="white"/>
<stop offset="1" stop-color="#BB9F4D" stop-opacity="0"/>
</radialGradient>
<radialGradient id="paint49_radial_129_1504" cx="0" cy="0" r="1" gradientUnits="userSpaceOnUse" gradientTransform="translate(5 5.15784) rotate(90) scale(5.15784 5)">
<stop offset="0.015625" stop-color="white"/>
<stop offset="1" stop-color="#BB9F4D" stop-opacity="0"/>
</radialGradient>
<radialGradient id="paint50_radial_129_1504" cx="0" cy="0" r="1" gradientUnits="userSpaceOnUse" gradientTransform="translate(5 5.15784) rotate(90) scale(5.15784 5)">
<stop offset="0.015625" stop-color="white"/>
<stop offset="1" stop-color="#BB9F4D" stop-opacity="0"/>
</radialGradient>
<radialGradient id="paint51_radial_129_1504" cx="0" cy="0" r="1" gradientUnits="userSpaceOnUse" gradientTransform="translate(5 5.15784) rotate(90) scale(5.15784 5)">
<stop offset="0.015625" stop-color="white"/>
<stop offset="1" stop-color="#BB9F4D" stop-opacity="0"/>
</radialGradient>
<radialGradient id="paint52_radial_129_1504" cx="0" cy="0" r="1" gradientUnits="userSpaceOnUse" gradientTransform="translate(5 5.15784) rotate(90) scale(5.15784 5)">
<stop offset="0.015625" stop-color="white"/>
<stop offset="1" stop-color="#BB9F4D" stop-opacity="0"/>
</radialGradient>
<radialGradient id="paint53_radial_129_1504" cx="0" cy="0" r="1" gradientUnits="userSpaceOnUse" gradientTransform="translate(5 5.15784) rotate(90) scale(5.15784 5)">
<stop offset="0.015625" stop-color="white"/>
<stop offset="1" stop-color="#BB9F4D" stop-opacity="0"/>
</radialGradient>
<radialGradient id="paint54_radial_129_1504" cx="0" cy="0" r="1" gradientUnits="userSpaceOnUse" gradientTransform="translate(5 5.15784) rotate(90) scale(5.15784 5)">
<stop offset="0.015625" stop-color="white"/>
<stop offset="1" stop-color="#BB9F4D" stop-opacity="0"/>
</radialGradient>
<radialGradient id="paint55_radial_129_1504" cx="0" cy="0" r="1" gradientUnits="userSpaceOnUse" gradientTransform="translate(5 5.15784) rotate(90) scale(5.15784 5)">
<stop offset="0.015625" stop-color="white"/>
<stop offset="1" stop-color="#BB9F4D" stop-opacity="0"/>
</radialGradient>
<radialGradient id="paint56_radial_129_1504" cx="0" cy="0" r="1" gradientUnits="userSpaceOnUse" gradientTransform="translate(5 5.15784) rotate(90) scale(5.15784 5)">
<stop offset="0.015625" stop-color="white"/>
<stop offset="1" stop-color="#BB9F4D" stop-opacity="0"/>
</radialGradient>
<radialGradient id="paint57_radial_129_1504" cx="0" cy="0" r="1" gradientUnits="userSpaceOnUse" gradientTransform="translate(12 12.3788) rotate(90) scale(12.3788 12)">
<stop offset="0.145833" stop-color="white"/>
<stop offset="1" stop-color="#EFE46F" stop-opacity="0.45"/>
</radialGradient>
<radialGradient id="paint58_radial_129_1504" cx="0" cy="0" r="1" gradientUnits="userSpaceOnUse" gradientTransform="translate(12 12.3788) rotate(90) scale(12.3788 12)">
<stop offset="0.145833" stop-color="white"/>
<stop offset="1" stop-color="#EFE46F" stop-opacity="0.45"/>
</radialGradient>
</defs>
</svg>
