<svg width="214" height="214" viewBox="0 0 214 214" fill="none" xmlns="http://www.w3.org/2000/svg">
<path d="M107 51L108.972 69.3637L112.854 51.3068L112.896 69.776L118.643 52.2237L116.754 70.5962L124.305 53.7408L120.506 71.8152L129.777 55.8415L124.11 73.4197L135 58.5026L127.526 75.3922L139.916 61.695L130.718 77.7109L144.471 65.3839L133.649 80.3506L148.616 69.5287L136.289 83.2822L152.305 74.084L138.608 86.4736L155.497 79L140.58 89.89L158.159 84.2227L142.185 93.4938L160.259 89.695L143.404 97.2456L161.776 95.3569L144.224 101.104L162.693 101.146L144.636 105.028L163 107L144.636 108.972L162.693 112.854L144.224 112.896L161.776 118.643L143.404 116.754L160.259 124.305L142.185 120.506L158.159 129.777L140.58 124.11L155.497 135L138.608 127.526L152.305 139.916L136.289 130.718L148.616 144.471L133.649 133.649L144.471 148.616L130.718 136.289L139.916 152.305L127.526 138.608L135 155.497L124.11 140.58L129.777 158.159L120.506 142.185L124.305 160.259L116.754 143.404L118.643 161.776L112.896 144.224L112.854 162.693L108.972 144.636L107 163L105.028 144.636L101.146 162.693L101.104 144.224L95.3569 161.776L97.2456 143.404L89.695 160.259L93.4938 142.185L84.2227 158.159L89.89 140.58L79 155.497L86.4736 138.608L74.084 152.305L83.2822 136.289L69.5287 148.616L80.3506 133.649L65.3839 144.471L77.7109 130.718L61.695 139.916L75.3922 127.526L58.5026 135L73.4197 124.11L55.8415 129.777L71.8152 120.506L53.7408 124.305L70.5962 116.754L52.2237 118.643L69.776 112.896L51.3068 112.854L69.3637 108.972L51 107L69.3637 105.028L51.3068 101.146L69.776 101.104L52.2237 95.3569L70.5962 97.2456L53.7408 89.695L71.8152 93.4938L55.8415 84.2227L73.4197 89.89L58.5026 79L75.3922 86.4736L61.695 74.084L77.7109 83.2822L65.3839 69.5287L80.3506 80.3506L69.5287 65.3839L83.2822 77.7109L74.084 61.695L86.4736 75.3922L79 58.5026L89.89 73.4197L84.2227 55.8415L93.4938 71.8152L89.695 53.7408L97.2456 70.5962L95.3569 52.2237L101.104 69.776L101.146 51.3068L105.028 69.3637L107 51Z" fill="white" fill-opacity="0.3"/>
<path d="M107 66L107.429 98.8112L111.286 66.2246L108.283 98.901L115.524 66.8959L109.122 99.0794L119.67 68.0067L109.939 99.3446L123.676 69.5446L110.723 99.6937L127.5 71.493L111.466 100.123L131.099 73.8303L112.16 100.627L134.434 76.5311L112.798 101.202L137.469 79.5656L113.373 101.84L140.17 82.9008L113.877 102.534L142.507 86.5L114.306 103.277L144.455 90.3238L114.655 104.061L145.993 94.3303L114.921 104.878L147.104 98.4756L115.099 105.717L147.775 102.714L115.189 106.571L148 107L115.189 107.429L147.775 111.286L115.099 108.283L147.104 115.524L114.921 109.122L145.993 119.67L114.655 109.939L144.455 123.676L114.306 110.723L142.507 127.5L113.877 111.466L140.17 131.099L113.373 112.16L137.469 134.434L112.798 112.798L134.434 137.469L112.16 113.373L131.099 140.17L111.466 113.877L127.5 142.507L110.723 114.306L123.676 144.455L109.939 114.655L119.67 145.993L109.122 114.921L115.524 147.104L108.283 115.099L111.286 147.775L107.429 115.189L107 148L106.571 115.189L102.714 147.775L105.717 115.099L98.4756 147.104L104.878 114.921L94.3303 145.993L104.061 114.655L90.3238 144.455L103.277 114.306L86.5 142.507L102.534 113.877L82.9008 140.17L101.84 113.373L79.5656 137.469L101.202 112.798L76.5311 134.434L100.627 112.16L73.8303 131.099L100.123 111.466L71.493 127.5L99.6937 110.723L69.5446 123.676L99.3446 109.939L68.0067 119.67L99.0794 109.122L66.8959 115.524L98.901 108.283L66.2246 111.286L98.8112 107.429L66 107L98.8112 106.571L66.2246 102.714L98.901 105.717L66.8959 98.4756L99.0794 104.878L68.0067 94.3303L99.3446 104.061L69.5446 90.3238L99.6937 103.277L71.493 86.5L100.123 102.534L73.8303 82.9008L100.627 101.84L76.5311 79.5656L101.202 101.202L79.5656 76.5311L101.84 100.627L82.9008 73.8303L102.534 100.123L86.5 71.493L103.277 99.6937L90.3238 69.5446L104.061 99.3446L94.3303 68.0067L104.878 99.0794L98.4756 66.8959L105.717 98.901L102.714 66.2246L106.571 98.8112L107 66Z" fill="white"/>
</svg>
